<?xml version="1.0" standalone="no"?>
<!DOCTYPE svg PUBLIC "-//W3C//DTD SVG 20010904//EN"
 "http://www.w3.org/TR/2001/REC-SVG-20010904/DTD/svg10.dtd">
<svg version="1.0" xmlns="http://www.w3.org/2000/svg"
 width="260.000000pt" height="260.000000pt" viewBox="0 0 260.000000 260.000000"
 preserveAspectRatio="xMidYMid meet">
<metadata>
Created by potrace 1.14, written by Peter Selinger 2001-2017
</metadata>
<g transform="translate(0.000000,260.000000) scale(0.100000,-0.100000)"
fill="#000000" stroke="none">
<path d="M187 1333 c1 -362 2 -673 2 -692 l1 -33 293 4 c288 4 293 4 372 32
110 37 177 80 246 154 114 125 170 290 170 505 -1 237 -64 407 -199 535 -67
62 -147 104 -272 140 -8 3 -150 7 -315 9 l-300 5 2 -659z m582 493 c88 -23
154 -61 210 -122 96 -104 131 -224 126 -424 -5 -232 -75 -372 -227 -460 -47
-26 -80 -36 -176 -55 -19 -3 -235 -7 -322 -5 l-25 0 0 538 c0 295 3 539 7 542
18 13 346 2 407 -14z"/>
<path d="M1375 1973 c18 -46 97 -259 100 -268 1 -5 6 -19 10 -30 4 -11 21 -56
37 -100 16 -44 38 -102 48 -130 24 -63 124 -337 226 -617 l79 -218 86 0 c74 0
88 3 94 18 10 25 191 518 345 937 73 198 138 375 146 393 l13 33 -91 -3 -91
-3 -33 -95 c-31 -91 -165 -471 -281 -800 -30 -85 -63 -177 -72 -204 -21 -61
-34 -67 -48 -24 -6 18 -34 98 -63 178 -52 146 -84 237 -158 450 -22 63 -64
180 -92 260 -28 80 -59 166 -67 193 l-16 47 -90 0 c-81 0 -88 -2 -82 -17z"/>
</g>
</svg>
